<?xml version="1.0" standalone="no"?>
<!DOCTYPE svg PUBLIC "-//W3C//DTD SVG 20010904//EN"
 "http://www.w3.org/TR/2001/REC-SVG-20010904/DTD/svg10.dtd">
<svg version="1.0" xmlns="http://www.w3.org/2000/svg"
 width="1080.000000pt" height="1080.000000pt" viewBox="0 0 1080.000000 1080.000000"
 preserveAspectRatio="xMidYMid meet">

<g transform="translate(0.000000,1080.000000) scale(0.100000,-0.100000)"
fill="#000000" stroke="none">
<path d="M5280 10230 c0 -5 -11 -10 -25 -10 -14 0 -25 -4 -25 -10 0 -5 -9 -10
-20 -10 -11 0 -20 -4 -20 -10 0 -5 -7 -10 -15 -10 -20 0 -125 -105 -125 -125
0 -8 -4 -15 -10 -15 -5 0 -10 -9 -10 -19 0 -11 -5 -21 -12 -23 -6 -2 -13 -31
-16 -66 -2 -34 -8 -62 -13 -62 -5 0 -9 -27 -9 -60 0 -33 4 -60 9 -60 5 0 12
-29 16 -65 3 -36 11 -65 16 -65 5 0 9 -7 9 -15 0 -28 105 -123 144 -131 20 -3
36 -10 36 -15 0 -5 14 -9 30 -9 17 0 30 -4 30 -10 0 -6 38 -10 95 -10 57 0 95
4 95 10 0 6 16 10 35 10 19 0 35 4 35 9 0 5 18 12 40 16 22 4 40 11 40 16 0 5
7 9 15 9 19 0 105 84 105 103 0 7 9 19 20 27 11 8 20 26 20 41 0 15 5 29 11
31 15 5 15 241 0 246 -6 2 -11 12 -11 23 0 10 -4 19 -10 19 -5 0 -10 7 -10 15
0 8 -4 15 -10 15 -5 0 -10 7 -10 15 0 19 -104 125 -123 125 -7 0 -19 9 -27 20
-8 11 -25 20 -37 20 -13 0 -23 5 -23 10 0 6 -13 10 -30 10 -16 0 -30 5 -30 10
0 6 -37 10 -90 10 -53 0 -90 -4 -90 -10z"/>
<path d="M5340 8990 c0 -5 -7 -10 -16 -10 -23 0 -43 -24 -50 -59 -4 -17 -10
-31 -15 -31 -5 0 -9 -45 -9 -100 0 -60 -4 -100 -10 -100 -6 0 -10 -38 -10 -95
0 -57 -4 -95 -10 -95 -6 0 -10 -38 -10 -95 0 -57 -4 -95 -10 -95 -6 0 -10 -35
-10 -85 0 -50 -4 -85 -10 -85 -6 0 -10 -37 -10 -90 0 -53 -4 -90 -10 -90 -6 0
-10 -32 -10 -75 0 -43 -4 -75 -10 -75 -6 0 -10 -33 -10 -80 0 -47 -4 -80 -10
-80 -6 0 -10 -28 -10 -65 0 -37 -4 -65 -10 -65 -6 0 -10 -27 -10 -60 0 -33 -4
-60 -10 -60 -5 0 -10 -25 -10 -55 0 -30 -4 -55 -10 -55 -5 0 -10 -22 -10 -50
0 -27 -4 -50 -10 -50 -5 0 -10 -25 -10 -55 0 -30 -4 -55 -9 -55 -5 0 -13 -40
-17 -90 -3 -49 -10 -90 -15 -90 -5 0 -9 -16 -9 -35 0 -19 -4 -35 -10 -35 -5 0
-10 -18 -10 -40 0 -22 -4 -40 -10 -40 -5 0 -10 -18 -10 -40 0 -22 -4 -40 -10
-40 -5 0 -10 -18 -10 -40 0 -22 -4 -40 -10 -40 -5 0 -10 -11 -10 -25 0 -14 -4
-25 -10 -25 -5 0 -10 -13 -10 -30 0 -16 -4 -30 -10 -30 -5 0 -10 -13 -10 -30
0 -16 -4 -30 -10 -30 -5 0 -10 -13 -10 -30 0 -16 -4 -30 -10 -30 -5 0 -10 -11
-10 -25 0 -14 -4 -25 -10 -25 -5 0 -10 -9 -10 -20 0 -11 -4 -20 -10 -20 -5 0
-10 -9 -10 -20 0 -11 -4 -20 -9 -20 -5 0 -11 -22 -15 -50 -4 -27 -11 -50 -16
-50 -6 0 -10 -9 -10 -20 0 -11 -4 -20 -10 -20 -5 0 -10 -6 -10 -13 0 -7 -9
-19 -20 -27 -11 -8 -20 -22 -20 -32 0 -10 -4 -18 -10 -18 -5 0 -10 -8 -10 -18
0 -10 -9 -24 -20 -32 -11 -8 -20 -21 -20 -28 0 -7 -18 -31 -40 -52 -22 -21
-40 -45 -40 -54 0 -8 -10 -18 -22 -22 -13 -4 -35 -20 -49 -35 -15 -16 -34 -29
-43 -29 -9 0 -16 -4 -16 -10 0 -5 -9 -10 -20 -10 -11 0 -20 -4 -20 -10 0 -5
-9 -10 -20 -10 -11 0 -20 -4 -20 -10 0 -5 -13 -10 -30 -10 -16 0 -30 -4 -30
-10 0 -5 -25 -10 -55 -10 -30 0 -55 -4 -55 -10 0 -5 -13 -10 -30 -10 -16 0
-30 5 -30 10 0 6 -27 10 -60 10 -33 0 -60 4 -60 10 0 6 -11 10 -25 10 -14 0
-25 5 -25 10 0 6 -13 10 -30 10 -16 0 -30 5 -30 10 0 6 -8 10 -18 10 -10 0
-24 9 -32 20 -8 11 -20 20 -28 20 -11 0 -35 19 -73 56 -94 96 -139 146 -139
155 0 6 -13 24 -30 39 -16 15 -30 35 -30 43 0 9 -9 19 -20 22 -11 3 -20 15
-20 26 0 10 -4 19 -10 19 -5 0 -13 12 -16 28 -4 15 -15 34 -26 43 -10 9 -18
24 -18 33 0 9 -4 16 -10 16 -5 0 -10 9 -10 20 0 11 -4 20 -10 20 -5 0 -10 9
-10 20 0 11 -4 20 -10 20 -5 0 -10 7 -10 15 0 8 -4 15 -10 15 -5 0 -10 9 -10
20 0 11 -4 20 -10 20 -5 0 -10 9 -10 20 0 11 -4 20 -10 20 -5 0 -10 9 -10 20
0 11 -4 20 -10 20 -5 0 -10 9 -10 20 0 11 -4 20 -10 20 -5 0 -10 14 -10 30 0
17 -4 30 -10 30 -5 0 -10 7 -10 15 0 8 -4 15 -10 15 -5 0 -10 14 -10 30 0 17
-4 30 -10 30 -5 0 -12 23 -16 50 -4 28 -10 50 -15 50 -5 0 -9 14 -9 30 0 17
-4 30 -10 30 -5 0 -10 11 -10 25 0 14 -4 25 -10 25 -5 0 -10 14 -10 30 0 17
-4 30 -10 30 -5 0 -10 14 -10 30 0 17 -4 30 -10 30 -5 0 -10 9 -10 20 0 11 -4
20 -10 20 -5 0 -10 14 -10 30 0 17 -4 30 -10 30 -5 0 -10 11 -10 25 0 14 -4
25 -10 25 -5 0 -10 7 -10 15 0 17 -64 85 -80 85 -5 0 -10 5 -10 10 0 6 -9 10
-20 10 -11 0 -20 -4 -20 -10 0 -5 -7 -10 -15 -10 -25 0 -65 -46 -65 -75 0 -14
-4 -25 -10 -25 -5 0 -10 -25 -10 -55 0 -30 5 -55 10 -55 6 0 10 -38 10 -95 0
-57 4 -95 10 -95 6 0 10 -40 10 -100 0 -60 4 -100 10 -100 6 0 10 -45 10 -115
0 -70 4 -115 10 -115 6 0 10 -93 10 -260 0 -167 -4 -260 -10 -260 -6 0 -10
-38 -10 -95 0 -57 -4 -95 -10 -95 -6 0 -10 -27 -10 -60 0 -33 -4 -60 -10 -60
-5 0 -10 -11 -10 -25 0 -14 -4 -25 -10 -25 -5 0 -10 -13 -10 -28 0 -16 -8 -34
-20 -42 -11 -8 -20 -20 -20 -28 0 -18 -46 -62 -64 -62 -8 0 -18 -9 -21 -20 -3
-11 -15 -20 -26 -20 -10 0 -19 -4 -19 -10 0 -5 -9 -10 -20 -10 -11 0 -20 -4
-20 -10 0 -6 -38 -10 -95 -10 -57 0 -95 4 -95 10 0 6 -13 10 -30 10 -16 0 -30
5 -30 10 0 6 -9 10 -20 10 -11 0 -20 5 -20 10 0 6 -7 10 -16 10 -9 0 -29 14
-44 30 -15 17 -35 30 -44 30 -9 0 -16 7 -16 15 0 22 -18 43 -137 154 -29 28
-53 55 -53 61 0 6 -18 29 -40 50 -22 21 -40 44 -40 50 0 6 -6 18 -12 25 -28
31 -38 44 -38 51 0 3 -13 19 -30 34 -16 15 -30 34 -30 42 0 7 -9 20 -20 28
-11 8 -20 21 -20 28 0 8 -13 27 -30 42 -16 15 -30 34 -30 42 0 7 -9 20 -20 28
-11 8 -20 20 -20 27 0 7 -4 13 -10 13 -5 0 -10 9 -10 19 0 11 -7 26 -15 35 -8
8 -15 21 -15 28 0 8 -9 20 -20 28 -11 8 -20 21 -20 30 0 9 -9 22 -20 30 -11 8
-20 22 -20 32 0 9 -9 20 -20 23 -11 3 -20 15 -20 26 0 10 -4 19 -10 19 -5 0
-10 8 -10 18 0 10 -9 24 -20 32 -11 8 -20 22 -20 32 0 10 -4 18 -10 18 -5 0
-10 7 -10 16 0 9 -8 24 -19 33 -10 9 -22 31 -25 49 -4 17 -12 32 -17 32 -5 0
-9 8 -9 18 0 10 -9 24 -20 32 -11 8 -20 22 -20 32 0 10 -4 18 -10 18 -5 0 -10
8 -10 18 0 10 -9 24 -20 32 -11 8 -20 22 -20 32 0 10 -4 18 -10 18 -5 0 -10 9
-10 20 0 11 -4 20 -10 20 -5 0 -10 6 -10 13 0 7 -9 19 -20 27 -11 8 -20 22
-20 32 0 10 -4 18 -10 18 -5 0 -10 9 -10 20 0 11 -4 20 -10 20 -5 0 -10 9 -10
19 0 11 -7 26 -15 35 -8 8 -15 22 -15 30 0 9 -4 16 -10 16 -5 0 -10 9 -10 19
0 11 -9 23 -20 26 -11 3 -20 11 -20 16 0 5 -9 9 -20 9 -11 0 -20 5 -20 10 0 6
-16 10 -35 10 -35 0 -85 -35 -85 -60 0 -5 -4 -10 -10 -10 -5 0 -10 -18 -10
-40 0 -22 5 -40 10 -40 6 0 10 -13 10 -30 0 -16 5 -30 10 -30 6 0 10 -9 10
-20 0 -11 5 -20 10 -20 6 0 10 -9 10 -20 0 -11 5 -20 10 -20 6 0 10 -11 10
-25 0 -14 5 -25 10 -25 6 0 10 -9 10 -20 0 -11 5 -20 10 -20 6 0 10 -9 10 -20
0 -11 5 -20 10 -20 6 0 10 -9 10 -20 0 -11 5 -20 10 -20 6 0 10 -13 10 -30 0
-16 5 -30 10 -30 6 0 10 -9 10 -20 0 -11 5 -20 10 -20 6 0 10 -7 10 -15 0 -8
5 -15 10 -15 6 0 10 -13 10 -30 0 -16 5 -30 10 -30 6 0 10 -9 10 -20 0 -11 4
-20 10 -20 5 0 12 -22 16 -50 4 -27 10 -50 15 -50 5 0 9 -9 9 -20 0 -11 5 -20
10 -20 6 0 10 -7 10 -15 0 -8 5 -15 10 -15 6 0 10 -13 10 -30 0 -16 5 -30 10
-30 6 0 10 -9 10 -20 0 -11 5 -20 10 -20 6 0 10 -13 10 -30 0 -16 5 -30 10
-30 6 0 10 -9 10 -20 0 -11 5 -20 10 -20 6 0 10 -7 10 -15 0 -8 5 -15 10 -15
6 0 10 -13 10 -30 0 -16 5 -30 10 -30 6 0 10 -9 10 -20 0 -11 5 -20 10 -20 6
0 10 -13 10 -30 0 -16 5 -30 10 -30 6 0 10 -9 10 -20 0 -11 4 -20 9 -20 4 0
11 -19 14 -42 3 -24 11 -44 16 -46 6 -2 11 -12 11 -23 0 -10 5 -19 10 -19 6 0
10 -13 10 -30 0 -16 5 -30 10 -30 6 0 10 -9 10 -20 0 -11 5 -20 10 -20 6 0 10
-13 10 -30 0 -16 5 -30 10 -30 6 0 10 -9 10 -20 0 -11 5 -20 10 -20 6 0 10
-11 10 -25 0 -14 5 -25 10 -25 6 0 10 -9 10 -20 0 -11 5 -20 10 -20 6 0 10
-13 10 -30 0 -16 5 -30 10 -30 6 0 10 -9 10 -20 0 -11 5 -20 10 -20 6 0 10
-13 10 -30 0 -16 5 -30 10 -30 6 0 10 -7 10 -15 0 -8 5 -15 10 -15 6 0 10 -13
10 -30 0 -16 4 -30 10 -30 5 0 12 -22 16 -50 4 -27 10 -50 15 -50 5 0 9 -9 9
-20 0 -11 5 -20 10 -20 6 0 10 -11 10 -25 0 -14 5 -25 10 -25 6 0 10 -9 10
-20 0 -11 5 -20 10 -20 6 0 10 -13 10 -30 0 -16 5 -30 10 -30 6 0 10 -13 10
-30 0 -16 5 -30 10 -30 6 0 10 -9 10 -20 0 -11 5 -20 10 -20 6 0 10 -13 10
-30 0 -16 5 -30 10 -30 6 0 10 -7 10 -15 0 -8 5 -15 10 -15 6 0 10 -13 10 -30
0 -16 5 -30 10 -30 6 0 10 -9 10 -20 0 -11 5 -20 10 -20 6 0 10 -13 10 -30 0
-16 4 -30 9 -30 6 0 13 -20 17 -45 3 -25 10 -45 15 -45 5 0 9 -9 9 -20 0 -11
5 -20 10 -20 6 0 10 -13 10 -30 0 -16 5 -30 10 -30 6 0 10 -13 10 -30 0 -16 5
-30 10 -30 6 0 10 -9 10 -20 0 -11 5 -20 10 -20 6 0 10 -11 10 -25 0 -14 5
-25 10 -25 6 0 10 -9 10 -20 0 -11 5 -20 10 -20 6 0 10 -13 10 -30 0 -16 5
-30 10 -30 6 0 10 -9 10 -20 0 -11 5 -20 10 -20 6 0 10 -13 10 -30 0 -16 5
-30 10 -30 6 0 10 -9 10 -20 0 -11 5 -20 10 -20 6 0 10 -11 10 -25 0 -14 5
-25 10 -25 6 0 10 -13 10 -30 0 -16 4 -30 9 -30 5 0 12 -18 16 -40 4 -22 11
-40 16 -40 5 0 9 -13 9 -30 0 -16 5 -30 10 -30 6 0 10 -7 10 -15 0 -8 5 -15
10 -15 6 0 10 -13 10 -30 0 -16 5 -30 10 -30 6 0 10 -9 10 -20 0 -11 5 -20 10
-20 6 0 10 -9 10 -20 0 -11 5 -20 10 -20 6 0 10 -9 10 -20 0 -11 5 -20 10 -20
6 0 10 -9 10 -20 0 -11 5 -20 10 -20 6 0 10 -9 10 -20 0 -15 9 -22 30 -26 17
-4 30 -10 30 -15 0 -5 9 -9 20 -9 11 0 20 4 20 10 0 5 16 12 35 16 19 3 35 10
35 15 0 5 9 9 20 9 11 0 20 5 20 10 0 6 9 10 20 10 11 0 20 5 20 10 0 6 9 10
20 10 11 0 20 5 20 10 0 6 14 10 30 10 17 0 30 5 30 10 0 6 7 10 15 10 8 0 15
5 15 10 0 6 9 10 20 10 11 0 20 5 20 10 0 6 14 10 30 10 17 0 30 5 30 10 0 6
14 10 30 10 17 0 30 5 30 10 0 6 14 10 30 10 17 0 30 5 30 10 0 6 11 10 25 10
14 0 25 5 25 10 0 6 14 10 30 10 17 0 30 5 30 10 0 6 14 10 30 10 17 0 30 4
30 9 0 5 34 12 75 16 41 4 75 11 75 16 0 5 18 9 40 9 22 0 40 5 40 10 0 6 18
10 40 10 22 0 40 5 40 10 0 6 20 10 45 10 25 0 45 5 45 10 0 6 23 10 50 10 28
0 50 5 50 10 0 6 23 10 50 10 28 0 50 5 50 10 0 6 25 10 55 10 30 0 55 5 55
10 0 6 30 10 70 10 40 0 70 4 70 10 0 6 28 10 65 10 37 0 65 4 65 10 0 6 33
10 80 10 47 0 80 4 80 10 0 6 42 10 105 10 63 0 105 4 105 10 0 6 51 10 134
10 93 0 136 4 138 12 6 16 1350 16 1356 -1 2 -7 46 -11 138 -11 83 0 134 -4
134 -10 0 -6 40 -10 100 -10 60 0 100 -4 100 -10 0 -6 35 -10 85 -10 50 0 85
-4 85 -10 0 -6 30 -10 70 -10 40 0 70 -4 70 -10 0 -6 28 -10 65 -10 37 0 65
-4 65 -10 0 -6 27 -10 60 -10 33 0 60 -4 60 -10 0 -5 20 -10 45 -10 25 0 45
-4 45 -10 0 -6 27 -10 60 -10 33 0 60 -4 60 -10 0 -5 16 -10 35 -10 19 0 35
-4 35 -10 0 -5 23 -10 50 -10 28 0 50 -4 50 -10 0 -5 18 -10 40 -10 22 0 40
-4 40 -9 0 -4 28 -11 63 -15 34 -3 64 -11 65 -16 2 -6 21 -10 43 -10 21 0 39
-4 39 -10 0 -5 14 -10 30 -10 17 0 30 -4 30 -10 0 -5 14 -10 30 -10 17 0 30
-4 30 -10 0 -5 11 -10 25 -10 14 0 25 -4 25 -10 0 -5 14 -10 30 -10 17 0 30
-4 30 -10 0 -5 14 -10 30 -10 17 0 30 -4 30 -10 0 -5 9 -10 20 -10 11 0 20 -4
20 -10 0 -5 14 -10 30 -10 17 0 30 -4 30 -10 0 -5 7 -10 15 -10 8 0 15 -4 15
-10 0 -5 9 -10 20 -10 11 0 20 -4 20 -10 0 -5 14 -10 30 -10 17 0 30 -4 30
-10 0 -5 9 -10 20 -10 11 0 20 -4 20 -9 0 -5 17 -12 37 -16 21 -4 41 -12 45
-18 6 -9 8 -9 8 1 0 6 9 12 19 12 24 0 101 72 101 94 0 9 5 16 10 16 6 0 10
14 10 30 0 17 5 30 10 30 6 0 10 9 10 20 0 11 5 20 10 20 6 0 10 14 10 30 0
17 5 30 10 30 6 0 10 7 10 15 0 8 5 15 10 15 6 0 10 14 10 30 0 17 5 30 10 30
6 0 10 9 10 20 0 11 4 20 9 20 5 0 11 23 15 50 4 28 11 50 16 50 6 0 10 11 10
25 0 14 5 25 10 25 6 0 10 14 10 30 0 17 5 30 10 30 6 0 10 9 10 20 0 11 5 20
10 20 6 0 10 14 10 30 0 17 5 30 10 30 6 0 10 14 10 30 0 17 5 30 10 30 6 0
10 7 10 15 0 8 5 15 10 15 6 0 10 14 10 30 0 17 5 30 10 30 6 0 10 14 10 30 0
17 5 30 10 30 6 0 10 9 10 20 0 11 5 20 10 20 6 0 10 14 10 30 0 17 5 30 10
30 6 0 10 11 10 25 0 14 5 25 10 25 6 0 10 9 10 20 0 11 4 20 9 20 5 0 12 27
16 60 4 33 11 60 16 60 5 0 9 9 9 20 0 11 5 20 10 20 6 0 10 11 10 25 0 14 5
25 10 25 6 0 10 14 10 30 0 17 5 30 10 30 6 0 10 9 10 20 0 11 5 20 10 20 6 0
10 14 10 30 0 17 5 30 10 30 6 0 10 9 10 20 0 11 5 20 10 20 6 0 10 14 10 30
0 17 5 30 10 30 6 0 10 11 10 25 0 14 5 25 10 25 6 0 10 9 10 20 0 11 5 20 10
20 6 0 10 14 10 30 0 17 5 30 10 30 6 0 10 14 10 30 0 17 4 30 9 30 6 0 13 20
17 45 3 25 10 45 15 45 5 0 9 9 9 20 0 11 5 20 10 20 6 0 10 14 10 30 0 17 5
30 10 30 6 0 10 9 10 20 0 11 5 20 10 20 6 0 10 14 10 30 0 17 5 30 10 30 6 0
10 7 10 15 0 8 5 15 10 15 6 0 10 14 10 30 0 17 5 30 10 30 6 0 10 14 10 30 0
17 5 30 10 30 6 0 10 9 10 20 0 11 5 20 10 20 6 0 10 14 10 30 0 17 5 30 10
30 6 0 10 9 10 20 0 11 5 20 10 20 6 0 10 11 10 25 0 14 5 25 10 25 6 0 10 9
10 20 0 11 4 20 9 20 5 0 11 23 15 50 4 28 11 50 16 50 6 0 10 14 10 30 0 17
5 30 10 30 6 0 10 7 10 15 0 8 5 15 10 15 6 0 10 14 10 30 0 17 5 30 10 30 6
0 10 9 10 20 0 11 5 20 10 20 6 0 10 9 10 20 0 11 5 20 10 20 6 0 10 14 10 30
0 17 5 30 10 30 6 0 10 9 10 20 0 11 5 20 10 20 6 0 10 11 10 25 0 14 5 25 10
25 6 0 10 9 10 20 0 11 5 20 10 20 6 0 10 9 10 20 0 11 5 20 10 20 6 0 10 14
10 30 0 17 4 30 9 30 5 0 12 18 16 40 4 22 11 40 16 40 5 0 9 11 9 25 0 14 5
25 10 25 6 0 10 9 10 20 0 11 5 20 10 20 6 0 10 9 10 20 0 11 5 20 10 20 6 0
10 9 10 20 0 11 5 20 10 20 6 0 10 14 10 30 0 17 5 30 10 30 6 0 10 9 10 20 0
11 5 20 10 20 6 0 10 7 10 15 0 8 5 15 10 15 6 0 10 9 10 20 0 11 5 20 10 20
6 0 10 14 10 30 0 17 5 30 10 30 6 0 10 9 10 20 0 11 5 20 10 20 6 0 10 18 10
40 0 22 -4 40 -10 40 -5 0 -10 5 -10 11 0 44 -96 54 -136 14 -14 -14 -29 -25
-34 -25 -6 0 -10 -7 -10 -16 0 -8 -7 -22 -15 -30 -8 -9 -15 -24 -15 -35 0 -10
-4 -19 -10 -19 -5 0 -10 -8 -10 -18 0 -10 -9 -24 -20 -32 -11 -8 -20 -21 -20
-30 0 -9 -9 -22 -20 -30 -11 -8 -20 -20 -20 -27 0 -7 -4 -13 -10 -13 -5 0 -10
-8 -10 -18 0 -10 -9 -24 -20 -32 -11 -8 -20 -22 -20 -32 0 -10 -4 -18 -10 -18
-5 0 -10 -8 -10 -18 0 -10 -9 -24 -20 -32 -11 -8 -20 -22 -20 -32 0 -10 -4
-18 -10 -18 -5 0 -10 -9 -10 -19 0 -11 -7 -26 -15 -35 -8 -8 -15 -19 -15 -25
0 -6 -4 -11 -10 -11 -5 0 -10 -9 -10 -20 0 -11 -4 -20 -10 -20 -5 0 -10 -8
-10 -18 0 -10 -9 -24 -20 -32 -11 -8 -20 -22 -20 -32 0 -10 -4 -18 -10 -18 -5
0 -10 -8 -10 -18 0 -10 -9 -24 -20 -32 -11 -8 -20 -22 -20 -32 0 -10 -4 -18
-10 -18 -5 0 -10 -6 -10 -13 0 -7 -9 -19 -20 -27 -11 -8 -20 -21 -20 -29 0 -7
-8 -21 -19 -30 -10 -9 -22 -32 -26 -51 -4 -19 -16 -42 -26 -51 -11 -9 -19 -23
-19 -32 0 -9 -9 -19 -20 -22 -11 -3 -20 -14 -20 -23 0 -10 -9 -24 -20 -32 -11
-8 -20 -21 -20 -30 0 -9 -9 -22 -20 -30 -11 -8 -20 -21 -20 -30 0 -9 -9 -22
-20 -30 -11 -8 -20 -20 -20 -28 0 -7 -11 -24 -25 -38 -14 -14 -25 -30 -25 -35
0 -6 -13 -24 -30 -39 -16 -15 -30 -33 -30 -40 0 -6 -18 -29 -40 -50 -22 -21
-40 -44 -40 -50 0 -6 -19 -29 -42 -51 -94 -85 -128 -124 -128 -144 0 -8 -7
-15 -16 -15 -9 0 -29 -13 -44 -30 -15 -16 -35 -30 -44 -30 -9 0 -16 -4 -16
-10 0 -5 -9 -10 -20 -10 -11 0 -20 -4 -20 -10 0 -5 -13 -10 -30 -10 -16 0 -30
-4 -30 -10 0 -6 -38 -10 -95 -10 -57 0 -95 4 -95 10 0 6 -13 10 -30 10 -16 0
-30 5 -30 10 0 6 -5 10 -11 10 -6 0 -28 18 -49 40 -21 22 -46 40 -54 40 -9 0
-16 8 -16 18 0 10 -9 24 -20 32 -11 8 -20 22 -20 32 0 10 -4 18 -10 18 -5 0
-10 7 -10 15 0 8 -4 15 -10 15 -5 0 -10 14 -10 30 0 17 -4 30 -10 30 -5 0 -10
23 -10 50 0 28 -4 50 -10 50 -6 0 -10 45 -10 115 0 70 -4 115 -10 115 -6 0
-10 38 -10 95 0 57 4 95 10 95 6 0 10 65 10 175 0 110 4 175 10 175 6 0 10 42
10 105 0 63 4 105 10 105 6 0 10 48 10 125 0 77 4 125 10 125 6 0 10 50 10
130 l0 131 -35 34 c-34 35 -55 44 -55 25 0 -5 -7 -10 -15 -10 -20 0 -85 -65
-85 -85 0 -8 -4 -15 -10 -15 -5 0 -10 -7 -10 -15 0 -8 -4 -15 -10 -15 -5 0
-10 -13 -10 -30 0 -16 -4 -30 -10 -30 -5 0 -10 -9 -10 -20 0 -11 -4 -20 -10
-20 -5 0 -10 -9 -10 -20 0 -11 -4 -20 -10 -20 -5 0 -10 -13 -10 -30 0 -16 -4
-30 -10 -30 -5 0 -10 -9 -10 -20 0 -11 -4 -20 -9 -20 -5 0 -12 -20 -15 -45 -4
-25 -11 -45 -17 -45 -5 0 -9 -13 -9 -30 0 -16 -4 -30 -10 -30 -5 0 -10 -9 -10
-20 0 -11 -4 -20 -10 -20 -5 0 -10 -9 -10 -20 0 -11 -4 -20 -10 -20 -5 0 -10
-11 -10 -25 0 -14 -4 -25 -10 -25 -5 0 -10 -9 -10 -20 0 -11 -4 -20 -10 -20
-5 0 -10 -13 -10 -30 0 -16 -4 -30 -10 -30 -5 0 -10 -9 -10 -20 0 -11 -4 -20
-10 -20 -5 0 -10 -9 -10 -20 0 -11 -4 -20 -10 -20 -5 0 -10 -9 -10 -20 0 -11
-4 -20 -10 -20 -5 0 -10 -9 -10 -20 0 -11 -4 -20 -10 -20 -5 0 -10 -7 -10 -15
0 -8 -4 -15 -10 -15 -5 0 -10 -9 -10 -20 0 -11 -4 -20 -9 -20 -5 0 -12 -18
-16 -40 -4 -22 -11 -40 -16 -40 -5 0 -9 -8 -9 -18 0 -10 -9 -24 -20 -32 -11
-8 -20 -22 -20 -32 0 -10 -4 -18 -10 -18 -5 0 -10 -6 -10 -13 0 -7 -9 -19 -20
-27 -11 -8 -20 -21 -20 -28 0 -8 -13 -27 -30 -42 -16 -15 -30 -33 -30 -39 0
-23 -149 -171 -172 -171 -8 0 -20 -9 -28 -20 -8 -11 -22 -20 -32 -20 -10 0
-18 -4 -18 -10 0 -5 -13 -10 -30 -10 -16 0 -30 -4 -30 -10 0 -5 -11 -10 -25
-10 -14 0 -25 -4 -25 -10 0 -6 -27 -10 -60 -10 -33 0 -60 -4 -60 -10 0 -5 -13
-10 -30 -10 -16 0 -30 5 -30 10 0 6 -25 10 -55 10 -30 0 -55 5 -55 10 0 6 -18
10 -40 10 -22 0 -40 5 -40 10 0 6 -9 10 -20 10 -11 0 -20 5 -20 10 0 6 -9 10
-20 10 -11 0 -20 5 -20 10 0 6 -9 10 -19 10 -11 0 -23 9 -26 20 -3 11 -13 20
-21 20 -17 0 -25 6 -104 82 -33 31 -60 63 -60 70 0 8 -9 20 -20 28 -11 8 -20
21 -20 29 0 7 -8 21 -19 30 -10 9 -22 31 -25 49 -4 17 -12 32 -17 32 -5 0 -9
9 -9 20 0 11 -4 20 -10 20 -5 0 -10 9 -10 20 0 11 -4 20 -10 20 -5 0 -10 9
-10 20 0 11 -4 20 -10 20 -5 0 -10 14 -10 30 0 17 -4 30 -10 30 -5 0 -10 9
-10 20 0 11 -4 20 -10 20 -5 0 -10 11 -10 25 0 14 -4 25 -10 25 -5 0 -10 14
-10 30 0 17 -4 30 -10 30 -5 0 -10 14 -10 30 0 17 -4 30 -10 30 -5 0 -10 14
-10 30 0 17 -4 30 -10 30 -5 0 -10 11 -10 25 0 14 -4 25 -10 25 -5 0 -10 18
-10 40 0 22 -4 40 -9 40 -5 0 -12 36 -16 80 -4 44 -11 80 -16 80 -5 0 -9 16
-9 35 0 19 -4 35 -10 35 -5 0 -10 23 -10 50 0 28 -4 50 -10 50 -5 0 -10 18
-10 40 0 22 -4 40 -10 40 -5 0 -10 25 -10 55 0 30 -4 55 -10 55 -5 0 -10 23
-10 50 0 28 -4 50 -10 50 -5 0 -10 25 -10 55 0 30 -4 55 -10 55 -6 0 -10 27
-10 60 0 33 -4 60 -10 60 -6 0 -10 28 -10 65 0 37 -4 65 -10 65 -6 0 -10 33
-10 80 0 47 -4 80 -10 80 -6 0 -10 32 -10 75 0 43 -4 75 -10 75 -6 0 -10 33
-10 80 0 47 -4 80 -10 80 -6 0 -10 38 -10 94 0 52 -4 96 -9 98 -5 2 -13 87
-17 191 -4 103 -11 187 -15 187 -5 0 -9 45 -9 100 0 60 -4 100 -10 100 -5 0
-10 14 -10 31 0 33 -19 59 -44 59 -9 0 -16 5 -16 10 0 6 -18 10 -40 10 -22 0
-40 -4 -40 -10z"/>
<path d="M2513 8413 c-24 -2 -43 -8 -43 -14 0 -5 -13 -9 -29 -9 -21 0 -32 -6
-36 -20 -3 -11 -13 -20 -21 -20 -19 0 -124 -105 -124 -125 0 -8 -4 -15 -10
-15 -5 0 -10 -11 -10 -25 0 -14 -4 -25 -10 -25 -5 0 -10 -22 -10 -50 0 -27 -4
-50 -10 -50 -5 0 -10 -13 -10 -30 0 -16 5 -30 10 -30 6 0 10 -22 10 -50 0 -27
5 -50 10 -50 6 0 10 -7 10 -15 0 -8 5 -15 10 -15 6 0 10 -9 10 -20 0 -11 5
-20 10 -20 6 0 10 -7 10 -15 0 -17 124 -145 140 -145 5 0 10 -4 10 -10 0 -5 9
-10 19 -10 11 0 21 -6 23 -12 6 -18 300 -18 305 0 3 6 13 12 24 12 10 0 19 5
19 10 0 6 7 10 16 10 21 0 94 77 94 99 0 9 9 23 20 31 11 8 20 22 20 32 0 10
5 18 10 18 6 0 10 11 10 25 0 14 5 25 10 25 6 0 10 50 10 130 0 80 -4 130 -10
130 -5 0 -10 11 -10 25 0 14 -4 25 -10 25 -5 0 -10 8 -10 18 0 10 -9 24 -20
32 -11 8 -20 22 -20 31 0 21 -33 59 -51 59 -8 0 -21 9 -29 20 -8 11 -26 20
-41 20 -15 0 -29 5 -31 11 -4 12 -189 20 -265 12z"/>
<path d="M8023 8413 c-24 -2 -43 -8 -43 -14 0 -5 -9 -9 -20 -9 -11 0 -20 -4
-20 -10 0 -5 -8 -10 -18 -10 -10 0 -24 -9 -32 -20 -8 -11 -18 -20 -23 -20 -14
0 -77 -69 -77 -85 0 -8 -4 -15 -10 -15 -5 0 -10 -9 -10 -20 0 -11 -4 -20 -10
-20 -5 0 -10 -7 -10 -15 0 -8 -4 -15 -10 -15 -6 0 -10 -47 -10 -120 0 -73 4
-120 10 -120 6 0 10 -11 10 -25 0 -14 5 -25 10 -25 6 0 10 -8 10 -18 0 -10 9
-24 20 -32 11 -8 20 -20 20 -28 0 -14 64 -82 77 -82 5 0 15 -9 23 -20 8 -11
22 -20 32 -20 10 0 18 -4 18 -10 0 -5 9 -10 19 -10 11 0 21 -6 24 -12 3 -10
40 -13 142 -13 102 0 139 3 143 13 2 6 12 12 23 12 10 0 19 5 19 10 0 6 8 10
18 10 10 0 24 10 32 21 8 12 30 37 48 55 17 18 32 40 32 49 0 8 5 15 10 15 6
0 10 9 10 20 0 11 5 20 10 20 6 0 10 9 10 20 0 11 5 20 10 20 6 0 10 20 10 45
0 25 5 45 10 45 6 0 10 23 10 50 0 28 -4 50 -10 50 -5 0 -10 20 -10 45 0 25
-4 45 -10 45 -5 0 -10 13 -10 28 0 16 -8 34 -20 42 -11 8 -20 20 -20 28 0 7
-16 28 -35 48 -19 19 -35 39 -35 44 0 6 -9 10 -20 10 -11 0 -20 5 -20 10 0 6
-9 10 -19 10 -11 0 -21 5 -23 10 -4 12 -213 21 -285 13z"/>
<path d="M390 8260 c0 -5 -18 -10 -40 -10 -22 0 -40 -4 -40 -10 0 -5 -7 -10
-15 -10 -8 0 -15 -4 -15 -10 0 -5 -7 -10 -15 -10 -9 0 -27 -10 -40 -22 -13
-13 -37 -34 -54 -48 -17 -14 -31 -33 -31 -42 0 -10 -4 -18 -10 -18 -5 0 -10
-9 -10 -20 0 -11 -4 -20 -10 -20 -5 0 -10 -13 -10 -30 0 -16 -4 -30 -10 -30
-6 0 -10 -38 -10 -95 0 -57 4 -95 10 -95 6 0 10 -18 10 -40 0 -22 5 -40 10
-40 6 0 10 -9 10 -20 0 -11 5 -20 10 -20 6 0 10 -9 10 -19 0 -11 9 -23 20 -26
11 -3 20 -13 20 -21 0 -18 44 -64 62 -64 8 0 20 -9 28 -20 8 -11 20 -20 27
-20 7 0 13 -4 13 -10 0 -5 14 -10 30 -10 17 0 30 -4 30 -10 0 -6 40 -10 100
-10 60 0 100 4 100 10 0 6 11 10 25 10 14 0 25 5 25 10 0 6 9 10 20 10 11 0
20 5 20 10 0 6 8 10 18 10 10 0 24 9 32 20 8 11 20 20 28 20 13 0 62 44 62 55
0 4 7 13 15 21 8 9 15 24 15 35 0 10 5 19 10 19 6 0 10 9 10 20 0 11 5 20 10
20 6 0 10 14 10 30 0 17 5 30 10 30 6 0 10 38 10 95 0 57 -4 95 -10 95 -5 0
-10 13 -10 28 0 16 -8 34 -20 42 -11 8 -20 22 -20 32 0 9 -16 32 -34 50 -52
49 -64 58 -78 58 -8 0 -20 9 -28 20 -8 12 -26 20 -42 20 -15 0 -28 5 -28 10 0
6 -16 10 -35 10 -19 0 -35 5 -35 10 0 6 -33 10 -80 10 -47 0 -80 -4 -80 -10z"/>
<path d="M10200 8260 c0 -5 -18 -10 -40 -10 -22 0 -40 -4 -40 -10 0 -5 -9 -10
-20 -10 -11 0 -20 -4 -20 -10 0 -5 -7 -10 -15 -10 -9 0 -27 -10 -40 -22 -13
-13 -30 -28 -37 -35 -26 -24 -38 -42 -38 -58 0 -8 -4 -15 -10 -15 -5 0 -10 -9
-10 -20 0 -11 -4 -20 -10 -20 -5 0 -10 -18 -10 -40 0 -22 -4 -40 -10 -40 -6 0
-10 -35 -10 -85 0 -50 4 -85 10 -85 6 0 10 -18 10 -40 0 -22 5 -40 10 -40 6 0
10 -9 10 -20 0 -11 5 -20 10 -20 6 0 10 -9 10 -19 0 -10 7 -21 15 -25 8 -3 15
-12 15 -21 0 -19 44 -65 62 -65 8 0 20 -9 28 -20 8 -11 22 -20 32 -20 10 0 18
-4 18 -10 0 -5 14 -10 30 -10 17 0 30 -4 30 -10 0 -6 38 -10 95 -10 57 0 95 4
95 10 0 6 14 10 30 10 17 0 30 5 30 10 0 6 9 10 20 10 11 0 20 5 20 10 0 6 6
10 13 10 7 0 19 9 27 20 8 11 20 20 28 20 14 0 62 44 62 57 0 5 9 15 20 23 11
8 20 22 20 32 0 10 5 18 10 18 6 0 10 9 10 20 0 11 5 20 10 20 6 0 10 14 10
30 0 17 5 30 10 30 6 0 10 35 10 85 0 50 -4 85 -10 85 -5 0 -10 14 -10 30 0
17 -4 30 -10 30 -5 0 -10 9 -10 20 0 11 -4 20 -10 20 -5 0 -10 7 -10 16 0 8
-18 32 -40 52 -60 56 -68 62 -84 62 -8 0 -18 9 -21 20 -4 14 -15 20 -36 20
-16 0 -29 5 -29 10 0 6 -18 10 -40 10 -22 0 -40 5 -40 10 0 6 -32 10 -75 10
-43 0 -75 -4 -75 -10z"/>
<path d="M4820 3460 c0 -6 -55 -10 -145 -10 -80 0 -145 -4 -145 -9 0 -5 -81
-12 -180 -16 -99 -4 -180 -11 -180 -16 0 -5 -36 -9 -80 -9 -47 0 -80 -4 -80
-10 0 -5 -25 -10 -55 -10 -30 0 -55 -4 -55 -10 0 -6 -30 -10 -70 -10 -40 0
-70 -4 -70 -10 0 -5 -20 -10 -45 -10 -25 0 -45 -4 -45 -10 0 -5 -22 -10 -50
-10 -27 0 -50 -4 -50 -10 0 -5 -22 -10 -50 -10 -27 0 -50 -4 -50 -10 0 -5 -16
-10 -35 -10 -19 0 -35 -4 -35 -10 0 -5 -18 -10 -40 -10 -22 0 -40 -4 -40 -10
0 -5 -13 -10 -30 -10 -16 0 -30 -4 -30 -10 0 -5 -18 -10 -40 -10 -22 0 -40 -4
-40 -10 0 -5 -11 -10 -25 -10 -14 0 -25 -4 -25 -9 0 -5 -27 -12 -60 -16 -33
-4 -60 -11 -60 -16 0 -5 -9 -9 -20 -9 -11 0 -20 -4 -20 -10 0 -5 -11 -10 -25
-10 -14 0 -25 -4 -25 -10 0 -5 -9 -10 -20 -10 -11 0 -20 -4 -20 -10 0 -5 -9
-10 -20 -10 -11 0 -20 -4 -20 -10 0 -5 -9 -10 -20 -10 -11 0 -20 -4 -20 -10 0
-5 -9 -10 -20 -10 -11 0 -20 -4 -20 -10 0 -5 -8 -10 -18 -10 -10 0 -24 -9 -32
-20 -8 -11 -22 -20 -32 -20 -10 0 -18 -4 -18 -10 0 -10 -46 -57 -99 -100 -17
-14 -31 -33 -31 -42 0 -10 -4 -18 -10 -18 -5 0 -10 -9 -10 -20 0 -11 -4 -20
-10 -20 -5 0 -10 -13 -10 -30 0 -16 -4 -30 -10 -30 -5 0 -10 -20 -10 -45 0
-25 5 -45 10 -45 6 0 10 -18 10 -40 0 -22 5 -40 10 -40 6 0 10 -9 10 -20 0
-11 5 -20 10 -20 6 0 10 -7 10 -16 0 -13 50 -67 112 -120 7 -6 20 -21 28 -33
8 -11 21 -21 30 -21 9 0 22 -9 30 -20 8 -11 22 -20 32 -20 10 0 18 -4 18 -10
0 -5 9 -10 20 -10 11 0 20 -4 20 -10 0 -5 9 -10 20 -10 11 0 20 -4 20 -10 0
-5 9 -10 20 -10 11 0 20 -4 20 -10 0 -5 7 -10 15 -10 8 0 15 -4 15 -10 0 -5 9
-10 20 -10 11 0 20 -4 20 -10 0 -5 14 -10 30 -10 17 0 30 -4 30 -10 0 -5 9
-10 20 -10 11 0 20 -4 20 -9 0 -5 25 -12 55 -16 30 -3 55 -11 55 -16 0 -5 14
-9 30 -9 17 0 30 -4 30 -10 0 -5 18 -10 40 -10 22 0 40 -4 40 -10 0 -5 18 -10
40 -10 22 0 40 -4 40 -10 0 -5 16 -10 35 -10 19 0 35 -4 35 -10 0 -5 18 -10
40 -10 22 0 40 -4 40 -10 0 -5 23 -10 50 -10 28 0 50 -4 50 -10 0 -5 20 -10
45 -10 25 0 45 -4 45 -10 0 -6 27 -10 60 -10 33 0 60 -4 60 -10 0 -5 25 -10
55 -10 30 0 55 -4 55 -10 0 -6 33 -10 80 -10 47 0 80 -4 80 -10 0 -6 28 -10
65 -10 37 0 65 -4 65 -10 0 -6 36 -10 89 -10 49 0 91 -4 93 -10 2 -5 133 -12
316 -16 171 -4 312 -11 312 -16 0 -4 135 -8 300 -8 165 0 300 4 300 8 0 5 145
12 323 16 185 4 323 11 325 17 2 5 44 9 93 9 53 0 89 4 89 10 0 6 32 10 75 10
43 0 75 4 75 10 0 6 30 10 70 10 40 0 70 4 70 10 0 6 25 10 55 10 30 0 55 5
55 10 0 6 30 10 70 10 40 0 70 4 70 10 0 6 16 10 35 10 19 0 35 5 35 10 0 6
23 10 50 10 28 0 50 5 50 10 0 6 23 10 50 10 28 0 50 5 50 10 0 6 16 10 35 10
19 0 35 5 35 10 0 6 14 10 30 10 17 0 30 5 30 10 0 6 18 10 40 10 22 0 40 5
40 10 0 6 13 10 29 10 16 0 31 4 33 10 2 5 31 13 66 16 34 4 62 11 62 15 0 5
9 9 20 9 11 0 20 5 20 10 0 6 14 10 30 10 17 0 30 5 30 10 0 6 9 10 20 10 11
0 20 5 20 10 0 6 7 10 15 10 8 0 15 5 15 10 0 6 9 10 20 10 11 0 20 5 20 10 0
6 9 10 20 10 11 0 20 5 20 10 0 6 8 10 18 10 10 0 24 9 32 20 8 11 21 20 30
20 9 0 22 9 30 20 8 11 20 20 27 20 17 0 133 116 133 133 0 7 9 19 20 27 11 8
20 22 20 32 0 10 5 18 10 18 6 0 10 20 10 45 0 25 5 45 10 45 6 0 10 9 10 20
0 11 -4 20 -10 20 -5 0 -10 23 -10 50 0 28 -4 50 -10 50 -5 0 -10 9 -10 20 0
11 -4 20 -10 20 -5 0 -10 8 -10 18 0 9 -14 28 -31 42 -51 42 -79 70 -79 80 0
6 -8 10 -18 10 -10 0 -24 9 -32 20 -8 11 -21 20 -30 20 -9 0 -22 9 -30 20 -8
11 -22 20 -32 20 -10 0 -18 5 -18 10 0 6 -9 10 -20 10 -11 0 -20 5 -20 10 0 6
-9 10 -20 10 -11 0 -20 5 -20 10 0 6 -11 10 -25 10 -14 0 -25 5 -25 10 0 6 -9
10 -20 10 -11 0 -20 5 -20 10 0 6 -9 10 -20 10 -11 0 -20 4 -20 9 0 5 -27 12
-60 16 -33 4 -60 11 -60 16 0 5 -11 9 -25 9 -14 0 -25 5 -25 10 0 6 -18 10
-40 10 -22 0 -40 5 -40 10 0 6 -13 10 -30 10 -16 0 -30 5 -30 10 0 6 -22 10
-50 10 -27 0 -50 5 -50 10 0 6 -16 10 -35 10 -19 0 -35 5 -35 10 0 6 -18 10
-40 10 -22 0 -40 5 -40 10 0 6 -25 10 -55 10 -30 0 -55 5 -55 10 0 6 -22 10
-50 10 -27 0 -50 5 -50 10 0 6 -27 10 -60 10 -33 0 -60 4 -60 10 0 6 -28 10
-65 10 -37 0 -65 4 -65 10 0 6 -33 10 -79 10 -44 0 -81 4 -83 9 -1 5 -87 13
-190 17 -104 4 -188 11 -188 15 0 5 -65 9 -145 9 -90 0 -145 4 -145 10 0 7
-190 10 -550 10 -360 0 -550 -3 -550 -10z m1100 -300 c0 -6 52 -10 135 -10 83
0 135 -4 135 -10 0 -6 38 -10 95 -10 57 0 95 -4 95 -10 0 -6 37 -10 90 -10 53
0 90 -4 90 -10 0 -6 32 -10 75 -10 43 0 75 -4 75 -10 0 -6 28 -10 65 -10 37 0
65 -4 65 -10 0 -6 30 -10 70 -10 40 0 70 -4 70 -10 0 -5 23 -10 50 -10 28 0
50 -4 50 -10 0 -5 20 -10 45 -10 25 0 45 -4 45 -10 0 -5 23 -10 50 -10 28 0
50 -4 50 -10 0 -5 18 -10 40 -10 22 0 40 -4 40 -10 0 -5 16 -10 35 -10 19 0
35 -4 35 -10 0 -5 14 -10 30 -10 17 0 30 -4 30 -9 0 -5 27 -12 60 -16 33 -4
60 -11 60 -16 0 -5 11 -9 25 -9 14 0 25 -4 25 -10 0 -5 9 -10 20 -10 11 0 20
-4 20 -10 0 -5 9 -10 20 -10 11 0 20 -4 20 -10 0 -5 8 -10 18 -10 10 0 24 -9
32 -20 8 -11 20 -20 28 -20 7 0 25 -12 39 -27 23 -22 27 -35 28 -81 0 -36 -4
-57 -12 -59 -7 -3 -13 -11 -13 -20 0 -17 -24 -43 -40 -43 -7 0 -25 -13 -40
-30 -15 -16 -35 -30 -44 -30 -9 0 -16 -4 -16 -10 0 -5 -9 -10 -20 -10 -11 0
-20 -4 -20 -10 0 -5 -9 -10 -20 -10 -11 0 -20 -4 -20 -10 0 -5 -11 -10 -25
-10 -14 0 -25 -4 -25 -10 0 -5 -13 -10 -30 -10 -16 0 -30 -4 -30 -9 0 -5 -27
-12 -60 -16 -33 -4 -60 -11 -60 -16 0 -5 -16 -9 -35 -9 -19 0 -35 -4 -35 -10
0 -5 -18 -10 -40 -10 -22 0 -40 -4 -40 -10 0 -5 -18 -10 -40 -10 -22 0 -40 -4
-40 -10 0 -5 -20 -10 -45 -10 -25 0 -45 -4 -45 -10 0 -5 -22 -10 -50 -10 -27
0 -50 -4 -50 -10 0 -6 -30 -10 -70 -10 -40 0 -70 -4 -70 -10 0 -5 -25 -10 -55
-10 -30 0 -55 -4 -55 -10 0 -6 -30 -10 -70 -10 -40 0 -70 -4 -70 -10 0 -6 -32
-10 -75 -10 -43 0 -75 -4 -75 -10 0 -6 -38 -10 -95 -10 -57 0 -95 -4 -95 -10
0 -6 -45 -10 -115 -10 -70 0 -115 -4 -115 -10 0 -6 -72 -10 -195 -10 -123 0
-195 -4 -195 -10 0 -6 -93 -10 -260 -10 -167 0 -260 4 -260 10 0 6 -67 10
-180 10 -113 0 -180 4 -180 10 0 6 -47 10 -120 10 -73 0 -120 4 -120 10 0 6
-35 10 -85 10 -50 0 -85 4 -85 10 0 6 -35 10 -85 10 -50 0 -85 4 -85 10 0 6
-30 10 -70 10 -40 0 -70 4 -70 10 0 6 -25 10 -55 10 -30 0 -55 5 -55 10 0 6
-27 10 -60 10 -33 0 -60 4 -60 10 0 6 -22 10 -50 10 -27 0 -50 5 -50 10 0 6
-20 10 -45 10 -25 0 -45 5 -45 10 0 6 -18 10 -40 10 -22 0 -40 5 -40 10 0 6
-20 10 -45 10 -25 0 -45 5 -45 10 0 6 -13 10 -30 10 -16 0 -30 4 -30 9 0 5
-27 12 -60 16 -33 4 -60 11 -60 16 0 5 -13 9 -30 9 -16 0 -30 5 -30 10 0 6
-11 10 -25 10 -14 0 -25 5 -25 10 0 6 -9 10 -20 10 -11 0 -20 5 -20 10 0 6 -9
10 -20 10 -11 0 -20 5 -20 10 0 6 -7 10 -16 10 -9 0 -29 14 -44 30 -15 17 -33
30 -40 30 -19 0 -37 24 -45 58 -3 18 -11 32 -16 32 -5 0 -9 9 -9 20 0 11 5 20
10 20 6 0 10 13 10 28 0 32 29 72 51 72 8 0 21 9 29 20 8 11 22 20 32 20 10 0
18 5 18 10 0 6 9 10 20 10 11 0 20 5 20 10 0 6 9 10 20 10 11 0 20 5 20 10 0
6 11 10 24 10 13 0 26 5 28 10 2 6 29 14 61 17 31 3 57 10 57 14 0 5 14 9 30
9 17 0 30 5 30 10 0 6 18 10 40 10 22 0 40 5 40 10 0 6 16 10 35 10 19 0 35 5
35 10 0 6 23 10 50 10 28 0 50 5 50 10 0 6 20 10 45 10 25 0 45 5 45 10 0 6
23 10 50 10 28 0 50 5 50 10 0 6 27 10 60 10 33 0 60 4 60 10 0 6 28 10 65 10
37 0 65 4 65 10 0 6 33 10 80 10 47 0 80 4 80 10 0 6 32 10 75 10 43 0 75 4
75 10 0 6 42 10 105 10 63 0 105 4 105 10 0 6 48 10 125 10 77 0 125 4 125 10
0 7 190 10 550 10 360 0 550 -3 550 -10z"/>
</g>
</svg>
